<mxfile host="Electron" agent="Mozilla/5.0 (Windows NT 10.0; Win64; x64) AppleWebKit/537.36 (KHTML, like Gecko) draw.io/24.7.8 Chrome/128.0.6613.36 Electron/32.0.1 Safari/537.36" version="24.7.8">
  <diagram name="Page-1" id="wnehPMIlpdaoE3mbFokF">
    <mxGraphModel dx="1091" dy="646" grid="1" gridSize="10" guides="1" tooltips="1" connect="1" arrows="1" fold="1" page="1" pageScale="1" pageWidth="850" pageHeight="1100" math="0" shadow="0">
      <root>
        <mxCell id="0" />
        <mxCell id="1" parent="0" />
        <mxCell id="at7XVWcUTKKPxSBM9OVI-18" style="edgeStyle=orthogonalEdgeStyle;rounded=0;orthogonalLoop=1;jettySize=auto;html=1;entryX=0.5;entryY=0;entryDx=0;entryDy=0;fontSize=13;" parent="1" source="at7XVWcUTKKPxSBM9OVI-3" target="at7XVWcUTKKPxSBM9OVI-4" edge="1">
          <mxGeometry relative="1" as="geometry" />
        </mxCell>
        <mxCell id="at7XVWcUTKKPxSBM9OVI-3" value="&lt;b style=&quot;font-size: 13px;&quot;&gt;Teacher Connection&lt;/b&gt;" style="ellipse;whiteSpace=wrap;html=1;aspect=fixed;fontSize=13;" parent="1" vertex="1">
          <mxGeometry x="370" y="30" width="80" height="80" as="geometry" />
        </mxCell>
        <mxCell id="at7XVWcUTKKPxSBM9OVI-13" style="edgeStyle=orthogonalEdgeStyle;rounded=0;orthogonalLoop=1;jettySize=auto;html=1;exitX=1;exitY=0.5;exitDx=0;exitDy=0;entryX=0;entryY=0.5;entryDx=0;entryDy=0;fontSize=13;" parent="1" source="at7XVWcUTKKPxSBM9OVI-4" target="at7XVWcUTKKPxSBM9OVI-12" edge="1">
          <mxGeometry relative="1" as="geometry" />
        </mxCell>
        <mxCell id="at7XVWcUTKKPxSBM9OVI-4" value="&lt;b style=&quot;font-size: 13px;&quot;&gt;WebSocket&amp;nbsp;&lt;/b&gt;&lt;div style=&quot;font-size: 13px;&quot;&gt;&lt;b style=&quot;font-size: 13px;&quot;&gt;Server&lt;/b&gt;&lt;/div&gt;" style="rounded=0;whiteSpace=wrap;html=1;fontSize=13;" parent="1" vertex="1">
          <mxGeometry x="570" y="160" width="120" height="60" as="geometry" />
        </mxCell>
        <mxCell id="at7XVWcUTKKPxSBM9OVI-10" style="edgeStyle=orthogonalEdgeStyle;rounded=0;orthogonalLoop=1;jettySize=auto;html=1;exitX=1;exitY=0.5;exitDx=0;exitDy=0;entryX=0;entryY=0.5;entryDx=0;entryDy=0;fontSize=13;" parent="1" source="at7XVWcUTKKPxSBM9OVI-5" target="at7XVWcUTKKPxSBM9OVI-7" edge="1">
          <mxGeometry relative="1" as="geometry" />
        </mxCell>
        <mxCell id="at7XVWcUTKKPxSBM9OVI-38" style="edgeStyle=orthogonalEdgeStyle;rounded=0;orthogonalLoop=1;jettySize=auto;html=1;exitX=0.5;exitY=1;exitDx=0;exitDy=0;entryX=0;entryY=0.5;entryDx=0;entryDy=0;fontSize=13;" parent="1" source="at7XVWcUTKKPxSBM9OVI-5" target="at7XVWcUTKKPxSBM9OVI-37" edge="1">
          <mxGeometry relative="1" as="geometry" />
        </mxCell>
        <mxCell id="at7XVWcUTKKPxSBM9OVI-5" value="&lt;b style=&quot;font-size: 13px;&quot;&gt;Student&lt;/b&gt;" style="rounded=0;whiteSpace=wrap;html=1;fontSize=13;" parent="1" vertex="1">
          <mxGeometry x="150" y="300" width="120" height="60" as="geometry" />
        </mxCell>
        <mxCell id="at7XVWcUTKKPxSBM9OVI-17" style="edgeStyle=orthogonalEdgeStyle;rounded=0;orthogonalLoop=1;jettySize=auto;html=1;exitX=0.5;exitY=0;exitDx=0;exitDy=0;entryX=0;entryY=0.5;entryDx=0;entryDy=0;fontSize=13;" parent="1" source="at7XVWcUTKKPxSBM9OVI-6" target="at7XVWcUTKKPxSBM9OVI-3" edge="1">
          <mxGeometry relative="1" as="geometry" />
        </mxCell>
        <mxCell id="at7XVWcUTKKPxSBM9OVI-6" value="&lt;b style=&quot;font-size: 13px;&quot;&gt;Teacher&lt;/b&gt;" style="rounded=0;whiteSpace=wrap;html=1;fontSize=13;" parent="1" vertex="1">
          <mxGeometry x="140" y="140" width="120" height="60" as="geometry" />
        </mxCell>
        <mxCell id="at7XVWcUTKKPxSBM9OVI-11" style="edgeStyle=orthogonalEdgeStyle;rounded=0;orthogonalLoop=1;jettySize=auto;html=1;exitX=1;exitY=0.5;exitDx=0;exitDy=0;entryX=0;entryY=0.75;entryDx=0;entryDy=0;fontSize=13;" parent="1" source="at7XVWcUTKKPxSBM9OVI-7" target="at7XVWcUTKKPxSBM9OVI-4" edge="1">
          <mxGeometry relative="1" as="geometry">
            <mxPoint x="520" y="289.66666666666674" as="targetPoint" />
          </mxGeometry>
        </mxCell>
        <mxCell id="at7XVWcUTKKPxSBM9OVI-7" value="&lt;b style=&quot;font-size: 13px;&quot;&gt;Student&lt;/b&gt;&lt;div style=&quot;font-size: 13px;&quot;&gt;&lt;b style=&quot;font-size: 13px;&quot;&gt;Connection&lt;/b&gt;&lt;/div&gt;" style="ellipse;whiteSpace=wrap;html=1;aspect=fixed;fontSize=13;" parent="1" vertex="1">
          <mxGeometry x="370" y="290" width="80" height="80" as="geometry" />
        </mxCell>
        <mxCell id="at7XVWcUTKKPxSBM9OVI-16" style="edgeStyle=orthogonalEdgeStyle;rounded=0;orthogonalLoop=1;jettySize=auto;html=1;exitX=0.5;exitY=1;exitDx=0;exitDy=0;entryX=0.75;entryY=1;entryDx=0;entryDy=0;fontSize=13;" parent="1" source="at7XVWcUTKKPxSBM9OVI-12" target="at7XVWcUTKKPxSBM9OVI-4" edge="1">
          <mxGeometry relative="1" as="geometry">
            <Array as="points">
              <mxPoint x="870" y="280" />
              <mxPoint x="660" y="280" />
            </Array>
          </mxGeometry>
        </mxCell>
        <mxCell id="at7XVWcUTKKPxSBM9OVI-12" value="&lt;strong style=&quot;font-size: 13px;&quot;&gt;Mapping Students to Teachers&lt;/strong&gt;" style="ellipse;whiteSpace=wrap;html=1;aspect=fixed;fontSize=13;" parent="1" vertex="1">
          <mxGeometry x="830" y="150" width="80" height="80" as="geometry" />
        </mxCell>
        <mxCell id="at7XVWcUTKKPxSBM9OVI-27" style="edgeStyle=orthogonalEdgeStyle;rounded=0;orthogonalLoop=1;jettySize=auto;html=1;exitX=0;exitY=0.5;exitDx=0;exitDy=0;entryX=1;entryY=0.25;entryDx=0;entryDy=0;fontSize=13;" parent="1" source="at7XVWcUTKKPxSBM9OVI-19" target="at7XVWcUTKKPxSBM9OVI-5" edge="1">
          <mxGeometry relative="1" as="geometry" />
        </mxCell>
        <mxCell id="at7XVWcUTKKPxSBM9OVI-19" value="&lt;b&gt;Attendance Start&lt;/b&gt;" style="ellipse;whiteSpace=wrap;html=1;aspect=fixed;fontSize=13;" parent="1" vertex="1">
          <mxGeometry x="370" y="140" width="80" height="80" as="geometry" />
        </mxCell>
        <mxCell id="at7XVWcUTKKPxSBM9OVI-23" style="edgeStyle=orthogonalEdgeStyle;rounded=0;orthogonalLoop=1;jettySize=auto;html=1;entryX=0;entryY=0.375;entryDx=0;entryDy=0;entryPerimeter=0;fontSize=13;" parent="1" source="at7XVWcUTKKPxSBM9OVI-6" target="at7XVWcUTKKPxSBM9OVI-19" edge="1">
          <mxGeometry relative="1" as="geometry">
            <mxPoint x="340" y="170" as="targetPoint" />
          </mxGeometry>
        </mxCell>
        <mxCell id="at7XVWcUTKKPxSBM9OVI-28" style="edgeStyle=orthogonalEdgeStyle;rounded=0;orthogonalLoop=1;jettySize=auto;html=1;exitX=0;exitY=0.5;exitDx=0;exitDy=0;entryX=0.974;entryY=0.637;entryDx=0;entryDy=0;entryPerimeter=0;fontSize=13;" parent="1" edge="1">
          <mxGeometry relative="1" as="geometry">
            <mxPoint x="570" y="189.5" as="sourcePoint" />
            <mxPoint x="447.9200000000001" y="190.46000000000004" as="targetPoint" />
            <Array as="points">
              <mxPoint x="509" y="190" />
            </Array>
          </mxGeometry>
        </mxCell>
        <mxCell id="at7XVWcUTKKPxSBM9OVI-29" value="" style="endArrow=classic;html=1;rounded=0;entryX=0;entryY=0.25;entryDx=0;entryDy=0;fontSize=13;" parent="1" target="at7XVWcUTKKPxSBM9OVI-4" edge="1">
          <mxGeometry width="50" height="50" relative="1" as="geometry">
            <mxPoint x="450" y="175" as="sourcePoint" />
            <mxPoint x="560" y="170" as="targetPoint" />
          </mxGeometry>
        </mxCell>
        <mxCell id="at7XVWcUTKKPxSBM9OVI-30" value="&lt;b&gt;Validation&lt;/b&gt;&lt;div style=&quot;font-size: 13px;&quot;&gt;&lt;b&gt;Server&lt;/b&gt;&lt;/div&gt;" style="rounded=0;whiteSpace=wrap;html=1;fontSize=13;" parent="1" vertex="1">
          <mxGeometry x="550" y="390" width="120" height="60" as="geometry" />
        </mxCell>
        <mxCell id="at7XVWcUTKKPxSBM9OVI-31" value="" style="endArrow=none;html=1;rounded=0;fontSize=13;" parent="1" edge="1">
          <mxGeometry width="50" height="50" relative="1" as="geometry">
            <mxPoint x="810" y="390" as="sourcePoint" />
            <mxPoint x="920" y="390" as="targetPoint" />
            <Array as="points">
              <mxPoint x="860" y="390" />
            </Array>
          </mxGeometry>
        </mxCell>
        <mxCell id="at7XVWcUTKKPxSBM9OVI-32" value="" style="endArrow=none;html=1;rounded=0;fontSize=13;" parent="1" edge="1">
          <mxGeometry width="50" height="50" relative="1" as="geometry">
            <mxPoint x="810" y="450" as="sourcePoint" />
            <mxPoint x="920" y="450" as="targetPoint" />
            <Array as="points">
              <mxPoint x="860" y="450" />
            </Array>
          </mxGeometry>
        </mxCell>
        <mxCell id="at7XVWcUTKKPxSBM9OVI-33" value="&lt;b&gt;MySQL Database&lt;/b&gt;" style="text;html=1;align=center;verticalAlign=middle;resizable=0;points=[];autosize=1;strokeColor=none;fillColor=none;fontSize=13;" parent="1" vertex="1">
          <mxGeometry x="805" y="405" width="130" height="30" as="geometry" />
        </mxCell>
        <mxCell id="at7XVWcUTKKPxSBM9OVI-35" style="edgeStyle=orthogonalEdgeStyle;rounded=0;orthogonalLoop=1;jettySize=auto;html=1;exitX=1;exitY=0.5;exitDx=0;exitDy=0;entryX=0;entryY=0.497;entryDx=0;entryDy=0;entryPerimeter=0;fontSize=13;" parent="1" source="at7XVWcUTKKPxSBM9OVI-30" target="at7XVWcUTKKPxSBM9OVI-33" edge="1">
          <mxGeometry relative="1" as="geometry" />
        </mxCell>
        <mxCell id="at7XVWcUTKKPxSBM9OVI-39" style="edgeStyle=orthogonalEdgeStyle;rounded=0;orthogonalLoop=1;jettySize=auto;html=1;entryX=0;entryY=0.5;entryDx=0;entryDy=0;fontSize=13;" parent="1" source="at7XVWcUTKKPxSBM9OVI-37" target="at7XVWcUTKKPxSBM9OVI-30" edge="1">
          <mxGeometry relative="1" as="geometry" />
        </mxCell>
        <mxCell id="at7XVWcUTKKPxSBM9OVI-37" value="&lt;b&gt;Student Authenti&lt;/b&gt;&lt;div&gt;&lt;b&gt;-cation&lt;/b&gt;&lt;/div&gt;" style="ellipse;whiteSpace=wrap;html=1;aspect=fixed;fontSize=13;" parent="1" vertex="1">
          <mxGeometry x="370" y="380" width="80" height="80" as="geometry" />
        </mxCell>
        <mxCell id="at7XVWcUTKKPxSBM9OVI-40" value="&lt;b&gt;Attendance Stop&lt;/b&gt;" style="ellipse;whiteSpace=wrap;html=1;aspect=fixed;fontSize=13;" parent="1" vertex="1">
          <mxGeometry x="370" y="480" width="80" height="80" as="geometry" />
        </mxCell>
        <mxCell id="at7XVWcUTKKPxSBM9OVI-45" style="edgeStyle=orthogonalEdgeStyle;rounded=0;orthogonalLoop=1;jettySize=auto;html=1;exitX=1;exitY=0.5;exitDx=0;exitDy=0;fontSize=13;" parent="1" edge="1">
          <mxGeometry relative="1" as="geometry">
            <mxPoint x="850" y="450" as="targetPoint" />
            <mxPoint x="680.0000000000002" y="505" as="sourcePoint" />
          </mxGeometry>
        </mxCell>
        <mxCell id="at7XVWcUTKKPxSBM9OVI-41" value="&lt;b&gt;Report Generation&lt;/b&gt;&lt;div style=&quot;font-size: 13px;&quot;&gt;&lt;b&gt;Server&lt;/b&gt;&lt;/div&gt;" style="whiteSpace=wrap;html=1;fontSize=13;" parent="1" vertex="1">
          <mxGeometry x="560" y="490" width="120" height="60" as="geometry" />
        </mxCell>
        <mxCell id="at7XVWcUTKKPxSBM9OVI-44" style="edgeStyle=orthogonalEdgeStyle;rounded=0;orthogonalLoop=1;jettySize=auto;html=1;exitX=0;exitY=0.75;exitDx=0;exitDy=0;entryX=-0.002;entryY=0.376;entryDx=0;entryDy=0;entryPerimeter=0;fontSize=13;" parent="1" source="at7XVWcUTKKPxSBM9OVI-6" target="at7XVWcUTKKPxSBM9OVI-40" edge="1">
          <mxGeometry relative="1" as="geometry" />
        </mxCell>
        <mxCell id="at7XVWcUTKKPxSBM9OVI-46" value="" style="endArrow=classic;html=1;rounded=0;entryX=0;entryY=0.25;entryDx=0;entryDy=0;exitX=0.972;exitY=0.306;exitDx=0;exitDy=0;exitPerimeter=0;fontSize=13;" parent="1" source="at7XVWcUTKKPxSBM9OVI-40" target="at7XVWcUTKKPxSBM9OVI-41" edge="1">
          <mxGeometry width="50" height="50" relative="1" as="geometry">
            <mxPoint x="430" y="505" as="sourcePoint" />
            <mxPoint x="630" y="270" as="targetPoint" />
          </mxGeometry>
        </mxCell>
        <mxCell id="at7XVWcUTKKPxSBM9OVI-47" value="" style="endArrow=classic;html=1;rounded=0;entryX=0.983;entryY=0.566;entryDx=0;entryDy=0;entryPerimeter=0;exitX=-0.005;exitY=0.604;exitDx=0;exitDy=0;exitPerimeter=0;fontSize=13;" parent="1" source="at7XVWcUTKKPxSBM9OVI-41" target="at7XVWcUTKKPxSBM9OVI-40" edge="1">
          <mxGeometry width="50" height="50" relative="1" as="geometry">
            <mxPoint x="510" y="390" as="sourcePoint" />
            <mxPoint x="560" y="340" as="targetPoint" />
          </mxGeometry>
        </mxCell>
        <mxCell id="at7XVWcUTKKPxSBM9OVI-48" value="" style="endArrow=classic;html=1;rounded=0;exitX=-0.008;exitY=0.66;exitDx=0;exitDy=0;exitPerimeter=0;entryX=0;entryY=0.25;entryDx=0;entryDy=0;fontSize=13;" parent="1" source="at7XVWcUTKKPxSBM9OVI-40" target="at7XVWcUTKKPxSBM9OVI-6" edge="1">
          <mxGeometry width="50" height="50" relative="1" as="geometry">
            <mxPoint x="490" y="400" as="sourcePoint" />
            <mxPoint x="540" y="350" as="targetPoint" />
            <Array as="points">
              <mxPoint x="90" y="533" />
              <mxPoint x="90" y="340" />
              <mxPoint x="90" y="155" />
            </Array>
          </mxGeometry>
        </mxCell>
        <mxCell id="at7XVWcUTKKPxSBM9OVI-54" style="edgeStyle=orthogonalEdgeStyle;rounded=0;orthogonalLoop=1;jettySize=auto;html=1;exitX=1;exitY=0.5;exitDx=0;exitDy=0;entryX=0;entryY=0.5;entryDx=0;entryDy=0;" parent="1" source="at7XVWcUTKKPxSBM9OVI-50" target="at7XVWcUTKKPxSBM9OVI-53" edge="1">
          <mxGeometry relative="1" as="geometry" />
        </mxCell>
        <mxCell id="at7XVWcUTKKPxSBM9OVI-50" value="&lt;b&gt;Admin&lt;/b&gt;" style="rounded=0;whiteSpace=wrap;html=1;" parent="1" vertex="1">
          <mxGeometry x="160" y="590" width="120" height="60" as="geometry" />
        </mxCell>
        <mxCell id="at7XVWcUTKKPxSBM9OVI-58" style="edgeStyle=orthogonalEdgeStyle;rounded=0;orthogonalLoop=1;jettySize=auto;html=1;exitX=1;exitY=0.5;exitDx=0;exitDy=0;" parent="1" source="at7XVWcUTKKPxSBM9OVI-51" edge="1">
          <mxGeometry relative="1" as="geometry">
            <mxPoint x="910" y="450" as="targetPoint" />
          </mxGeometry>
        </mxCell>
        <mxCell id="at7XVWcUTKKPxSBM9OVI-51" value="&lt;b&gt;Data Insertion Server&lt;/b&gt;" style="rounded=0;whiteSpace=wrap;html=1;" parent="1" vertex="1">
          <mxGeometry x="560" y="590" width="120" height="60" as="geometry" />
        </mxCell>
        <mxCell id="at7XVWcUTKKPxSBM9OVI-55" style="edgeStyle=orthogonalEdgeStyle;rounded=0;orthogonalLoop=1;jettySize=auto;html=1;exitX=1;exitY=0.5;exitDx=0;exitDy=0;entryX=0;entryY=0.5;entryDx=0;entryDy=0;" parent="1" source="at7XVWcUTKKPxSBM9OVI-53" target="at7XVWcUTKKPxSBM9OVI-51" edge="1">
          <mxGeometry relative="1" as="geometry" />
        </mxCell>
        <mxCell id="at7XVWcUTKKPxSBM9OVI-53" value="&lt;b&gt;Student Data&amp;nbsp;&lt;/b&gt;&lt;div&gt;&lt;b&gt;Insertion&lt;/b&gt;&lt;/div&gt;" style="ellipse;whiteSpace=wrap;html=1;aspect=fixed;fontSize=13;" parent="1" vertex="1">
          <mxGeometry x="370" y="580" width="80" height="80" as="geometry" />
        </mxCell>
        <mxCell id="at7XVWcUTKKPxSBM9OVI-57" value="" style="endArrow=classic;html=1;rounded=0;entryX=1.012;entryY=0.655;entryDx=0;entryDy=0;entryPerimeter=0;" parent="1" target="at7XVWcUTKKPxSBM9OVI-41" edge="1">
          <mxGeometry width="50" height="50" relative="1" as="geometry">
            <mxPoint x="880" y="450" as="sourcePoint" />
            <mxPoint x="710" y="500" as="targetPoint" />
            <Array as="points">
              <mxPoint x="880" y="530" />
            </Array>
          </mxGeometry>
        </mxCell>
        <mxCell id="at7XVWcUTKKPxSBM9OVI-59" value="Teacher Form Data&amp;nbsp;" style="text;html=1;align=center;verticalAlign=middle;resizable=0;points=[];autosize=1;strokeColor=none;fillColor=none;" parent="1" vertex="1">
          <mxGeometry x="225" y="40" width="130" height="30" as="geometry" />
        </mxCell>
        <mxCell id="at7XVWcUTKKPxSBM9OVI-60" value="Teacher Form Data&amp;nbsp;" style="text;html=1;align=center;verticalAlign=middle;resizable=0;points=[];autosize=1;strokeColor=none;fillColor=none;" parent="1" vertex="1">
          <mxGeometry x="480" y="40" width="130" height="30" as="geometry" />
        </mxCell>
        <mxCell id="at7XVWcUTKKPxSBM9OVI-61" value="Student Form&amp;nbsp;&lt;div&gt;Data&lt;/div&gt;" style="text;html=1;align=center;verticalAlign=middle;resizable=0;points=[];autosize=1;strokeColor=none;fillColor=none;" parent="1" vertex="1">
          <mxGeometry x="275" y="325" width="100" height="40" as="geometry" />
        </mxCell>
        <mxCell id="at7XVWcUTKKPxSBM9OVI-62" value="Student Form&lt;div&gt;&amp;nbsp;Data&lt;/div&gt;" style="text;html=1;align=center;verticalAlign=middle;resizable=0;points=[];autosize=1;strokeColor=none;fillColor=none;" parent="1" vertex="1">
          <mxGeometry x="510" y="260" width="100" height="40" as="geometry" />
        </mxCell>
        <mxCell id="at7XVWcUTKKPxSBM9OVI-63" value="Teacher initials&amp;nbsp;&lt;div&gt;from teacher /student&amp;nbsp;&lt;/div&gt;&lt;div&gt;data&lt;/div&gt;" style="text;html=1;align=center;verticalAlign=middle;resizable=0;points=[];autosize=1;strokeColor=none;fillColor=none;" parent="1" vertex="1">
          <mxGeometry x="690" y="133" width="140" height="60" as="geometry" />
        </mxCell>
        <mxCell id="at7XVWcUTKKPxSBM9OVI-64" value="Formation of dictionary of lists&lt;div&gt;holding teacher/student mappings&lt;/div&gt;" style="text;html=1;align=center;verticalAlign=middle;resizable=0;points=[];autosize=1;strokeColor=none;fillColor=none;" parent="1" vertex="1">
          <mxGeometry x="660" y="280" width="200" height="40" as="geometry" />
        </mxCell>
        <mxCell id="at7XVWcUTKKPxSBM9OVI-65" value="Command to&amp;nbsp;&lt;div&gt;Start Attendance&lt;/div&gt;" style="text;html=1;align=center;verticalAlign=middle;resizable=0;points=[];autosize=1;strokeColor=none;fillColor=none;" parent="1" vertex="1">
          <mxGeometry x="260" y="133" width="110" height="40" as="geometry" />
        </mxCell>
        <mxCell id="at7XVWcUTKKPxSBM9OVI-66" value="Command to&amp;nbsp;&lt;div&gt;Start Attendance&lt;/div&gt;" style="text;html=1;align=center;verticalAlign=middle;resizable=0;points=[];autosize=1;strokeColor=none;fillColor=none;" parent="1" vertex="1">
          <mxGeometry x="450" y="133" width="110" height="40" as="geometry" />
        </mxCell>
        <mxCell id="at7XVWcUTKKPxSBM9OVI-67" value="&lt;div&gt;&lt;span style=&quot;background-color: initial;&quot;&gt;Attendance&lt;/span&gt;&lt;br&gt;&lt;/div&gt;Message&amp;nbsp;&amp;nbsp;&lt;div&gt;to&amp;nbsp;&lt;/div&gt;&lt;div&gt;Students&lt;/div&gt;" style="text;html=1;align=center;verticalAlign=middle;resizable=0;points=[];autosize=1;strokeColor=none;fillColor=none;" parent="1" vertex="1">
          <mxGeometry x="435" y="188" width="80" height="70" as="geometry" />
        </mxCell>
        <mxCell id="at7XVWcUTKKPxSBM9OVI-68" value="&lt;div&gt;&lt;span style=&quot;background-color: initial;&quot;&gt;Attendance&lt;/span&gt;&lt;br&gt;&lt;/div&gt;Message&amp;nbsp;&amp;nbsp;&lt;div&gt;to Students&lt;/div&gt;" style="text;html=1;align=center;verticalAlign=middle;resizable=0;points=[];autosize=1;strokeColor=none;fillColor=none;" parent="1" vertex="1">
          <mxGeometry x="240" y="220" width="80" height="60" as="geometry" />
        </mxCell>
        <mxCell id="at7XVWcUTKKPxSBM9OVI-69" value="Succesfull&lt;div&gt;Authentication&lt;/div&gt;&lt;div&gt;Status&lt;/div&gt;" style="text;html=1;align=center;verticalAlign=middle;resizable=0;points=[];autosize=1;strokeColor=none;fillColor=none;" parent="1" vertex="1">
          <mxGeometry x="220" y="360" width="100" height="60" as="geometry" />
        </mxCell>
        <mxCell id="at7XVWcUTKKPxSBM9OVI-70" value="Succesfull&lt;div&gt;Authentication&lt;/div&gt;&lt;div&gt;Status&lt;/div&gt;" style="text;html=1;align=center;verticalAlign=middle;resizable=0;points=[];autosize=1;strokeColor=none;fillColor=none;" parent="1" vertex="1">
          <mxGeometry x="435" y="360" width="100" height="60" as="geometry" />
        </mxCell>
        <mxCell id="at7XVWcUTKKPxSBM9OVI-71" value="Student data&lt;div&gt;and Lecture data&lt;/div&gt;" style="text;html=1;align=center;verticalAlign=middle;resizable=0;points=[];autosize=1;strokeColor=none;fillColor=none;" parent="1" vertex="1">
          <mxGeometry x="680" y="380" width="110" height="40" as="geometry" />
        </mxCell>
        <mxCell id="at7XVWcUTKKPxSBM9OVI-72" value="&amp;nbsp;Command to Stop Attendance" style="text;html=1;align=center;verticalAlign=middle;resizable=0;points=[];autosize=1;strokeColor=none;fillColor=none;" parent="1" vertex="1">
          <mxGeometry x="150" y="480" width="190" height="30" as="geometry" />
        </mxCell>
        <mxCell id="at7XVWcUTKKPxSBM9OVI-73" value="Request for student data&amp;nbsp;&lt;div&gt;of appropriate lecture&lt;/div&gt;" style="text;html=1;align=center;verticalAlign=middle;resizable=0;points=[];autosize=1;strokeColor=none;fillColor=none;" parent="1" vertex="1">
          <mxGeometry x="680" y="463" width="160" height="40" as="geometry" />
        </mxCell>
        <mxCell id="at7XVWcUTKKPxSBM9OVI-74" value="Student data of appropriate&lt;div&gt;Lecture&lt;/div&gt;" style="text;html=1;align=center;verticalAlign=middle;resizable=0;points=[];autosize=1;strokeColor=none;fillColor=none;" parent="1" vertex="1">
          <mxGeometry x="700" y="530" width="170" height="40" as="geometry" />
        </mxCell>
        <mxCell id="at7XVWcUTKKPxSBM9OVI-76" value="Student data in appropriate&lt;div&gt;format&lt;/div&gt;" style="text;html=1;align=center;verticalAlign=middle;resizable=0;points=[];autosize=1;strokeColor=none;fillColor=none;" parent="1" vertex="1">
          <mxGeometry x="140" y="530" width="170" height="40" as="geometry" />
        </mxCell>
        <mxCell id="at7XVWcUTKKPxSBM9OVI-77" value="New Student&lt;div&gt;Data&lt;/div&gt;" style="text;html=1;align=center;verticalAlign=middle;resizable=0;points=[];autosize=1;strokeColor=none;fillColor=none;" parent="1" vertex="1">
          <mxGeometry x="275" y="623" width="90" height="40" as="geometry" />
        </mxCell>
        <mxCell id="at7XVWcUTKKPxSBM9OVI-78" value="&lt;span style=&quot;color: rgb(0, 0, 0); font-family: Helvetica; font-size: 12px; font-style: normal; font-variant-ligatures: normal; font-variant-caps: normal; font-weight: 400; letter-spacing: normal; orphans: 2; text-align: center; text-indent: 0px; text-transform: none; widows: 2; word-spacing: 0px; -webkit-text-stroke-width: 0px; white-space: nowrap; background-color: rgb(251, 251, 251); text-decoration-thickness: initial; text-decoration-style: initial; text-decoration-color: initial; display: inline !important; float: none;&quot;&gt;New Student&lt;/span&gt;&lt;div style=&quot;forced-color-adjust: none; color: rgb(0, 0, 0); font-family: Helvetica; font-size: 12px; font-style: normal; font-variant-ligatures: normal; font-variant-caps: normal; font-weight: 400; letter-spacing: normal; orphans: 2; text-align: center; text-indent: 0px; text-transform: none; widows: 2; word-spacing: 0px; -webkit-text-stroke-width: 0px; white-space: nowrap; background-color: rgb(251, 251, 251); text-decoration-thickness: initial; text-decoration-style: initial; text-decoration-color: initial;&quot;&gt;Data&lt;/div&gt;" style="text;whiteSpace=wrap;html=1;" parent="1" vertex="1">
          <mxGeometry x="460" y="623" width="100" height="50" as="geometry" />
        </mxCell>
        <mxCell id="at7XVWcUTKKPxSBM9OVI-79" value="&lt;span style=&quot;color: rgb(0, 0, 0); font-family: Helvetica; font-size: 12px; font-style: normal; font-variant-ligatures: normal; font-variant-caps: normal; font-weight: 400; letter-spacing: normal; orphans: 2; text-align: center; text-indent: 0px; text-transform: none; widows: 2; word-spacing: 0px; -webkit-text-stroke-width: 0px; white-space: nowrap; background-color: rgb(251, 251, 251); text-decoration-thickness: initial; text-decoration-style: initial; text-decoration-color: initial; display: inline !important; float: none;&quot;&gt;New Student&lt;/span&gt;&lt;div style=&quot;forced-color-adjust: none; color: rgb(0, 0, 0); font-family: Helvetica; font-size: 12px; font-style: normal; font-variant-ligatures: normal; font-variant-caps: normal; font-weight: 400; letter-spacing: normal; orphans: 2; text-align: center; text-indent: 0px; text-transform: none; widows: 2; word-spacing: 0px; -webkit-text-stroke-width: 0px; white-space: nowrap; background-color: rgb(251, 251, 251); text-decoration-thickness: initial; text-decoration-style: initial; text-decoration-color: initial;&quot;&gt;Data&lt;/div&gt;" style="text;whiteSpace=wrap;html=1;" parent="1" vertex="1">
          <mxGeometry x="750" y="623" width="100" height="50" as="geometry" />
        </mxCell>
      </root>
    </mxGraphModel>
  </diagram>
</mxfile>
